<?xml version="1.0" encoding="iso-8859-1"?>
<!-- Generator: Adobe Illustrator 19.0.0, SVG Export Plug-In . SVG Version: 6.00 Build 0)  -->
<svg version="1.1" id="Capa_1" xmlns="http://www.w3.org/2000/svg" xmlns:xlink="http://www.w3.org/1999/xlink" x="0px" y="0px"
	 viewBox="0 0 60 60" style="enable-background:new 0 0 60 60;" xml:space="preserve">
<g>
	<g>
		<path style="fill:#FFFFFF;" d="M35.023,47c-0.333,0.94-0.523,1.946-0.523,3c0,4.971,4.029,9,9,9s9-4.029,9-9
			c0-1.054-0.19-2.06-0.523-3"/>
		<path style="fill:#95A5A5;" d="M43.5,60c-5.514,0-10-4.486-10-10c0-1.125,0.195-2.247,0.581-3.334
			c0.185-0.521,0.758-0.795,1.276-0.608c0.521,0.185,0.793,0.756,0.608,1.276C35.657,48.207,35.5,49.104,35.5,50
			c0,4.411,3.589,8,8,8s8-3.589,8-8c0-0.896-0.157-1.793-0.466-2.666c-0.185-0.521,0.088-1.092,0.608-1.276
			c0.517-0.184,1.091,0.087,1.276,0.608C53.305,47.753,53.5,48.875,53.5,50C53.5,55.514,49.014,60,43.5,60z"/>
	</g>
	<path style="fill:#95A5A5;" d="M43.5,54c-2.206,0-4-1.794-4-4s1.794-4,4-4s4,1.794,4,4S45.706,54,43.5,54z M43.5,48
		c-1.103,0-2,0.897-2,2s0.897,2,2,2s2-0.897,2-2S44.603,48,43.5,48z"/>
	<g>
		<line style="fill:#FFFFFF;" x1="43.5" y1="53" x2="43.5" y2="59"/>
		<path style="fill:#95A5A5;" d="M43.5,60c-0.553,0-1-0.448-1-1v-6c0-0.552,0.447-1,1-1s1,0.448,1,1v6
			C44.5,59.552,44.053,60,43.5,60z"/>
	</g>
	<path style="fill:#95A5A5;" d="M52.5,51h-6c-0.553,0-1-0.448-1-1s0.447-1,1-1h6c0.553,0,1,0.448,1,1S53.053,51,52.5,51z"/>
	<path style="fill:#95A5A5;" d="M40.5,51h-6c-0.553,0-1-0.448-1-1s0.447-1,1-1h6c0.553,0,1,0.448,1,1S41.053,51,40.5,51z"/>
	<path style="fill:#95A5A5;" d="M58.5,45h-1c-0.553,0-1-0.448-1-1s0.447-1,1-1h1c0.553,0,1,0.448,1,1S59.053,45,58.5,45z"/>
	<path style="fill:#95A5A5;" d="M58.5,42h-1c-0.553,0-1-0.448-1-1s0.447-1,1-1h1c0.553,0,1,0.448,1,1S59.053,42,58.5,42z"/>
	<path style="fill:#95A5A5;" d="M58.5,39h-1c-0.553,0-1-0.448-1-1s0.447-1,1-1h1c0.553,0,1,0.448,1,1S59.053,39,58.5,39z"/>
	<path style="fill:#7F8C8D;" d="M55.5,53c-0.553,0-1-0.448-1-1v-5c0-0.552,0.447-1,1-1s1,0.448,1,1v5C56.5,52.552,56.053,53,55.5,53
		z"/>
	<path style="fill:#7F8C8D;" d="M58.5,52h-3c-0.553,0-1-0.448-1-1s0.447-1,1-1h3c0.553,0,1,0.448,1,1S59.053,52,58.5,52z"/>
	<g>
		<path style="fill:#7F8C8D;" d="M10.438,54H2.5v-8h7.938l-0.473,1.334C9.657,48.207,9.5,49.104,9.5,50s0.157,1.793,0.466,2.666
			L10.438,54z M4.5,52h3.207C7.569,51.339,7.5,50.67,7.5,50s0.069-1.339,0.207-2H4.5V52z"/>
		<path style="fill:#7F8C8D;" d="M31.5,54h-6.938l0.473-1.334C25.343,51.793,25.5,50.896,25.5,50s-0.157-1.793-0.466-2.666
			L24.562,46H31.5V54z M27.293,52H29.5v-4h-2.207c0.138,0.661,0.207,1.33,0.207,2S27.431,51.339,27.293,52z"/>
	</g>
	<path style="fill:#14A085;" d="M29.5,15v11.754c0,1.793-1.453,3.246-3.246,3.246H6.694C6.035,30,5.5,30.535,5.5,31.194V47h3.523
		c1.237-3.493,4.56-6,8.477-6s7.24,2.507,8.477,6H29.5h28V15H29.5z"/>
	<g>
		<circle style="fill:#FFFFFF;" cx="17.5" cy="50" r="9"/>
		<path style="fill:#95A5A5;" d="M17.5,60c-5.514,0-10-4.486-10-10s4.486-10,10-10s10,4.486,10,10S23.014,60,17.5,60z M17.5,42
			c-4.411,0-8,3.589-8,8s3.589,8,8,8s8-3.589,8-8S21.911,42,17.5,42z"/>
	</g>
	<path style="fill:#95A5A5;" d="M17.5,54c-2.206,0-4-1.794-4-4s1.794-4,4-4s4,1.794,4,4S19.706,54,17.5,54z M17.5,48
		c-1.103,0-2,0.897-2,2s0.897,2,2,2s2-0.897,2-2S18.603,48,17.5,48z"/>
	<path style="fill:#95A5A5;" d="M19.621,48.879c-0.256,0-0.512-0.098-0.707-0.293c-0.391-0.391-0.391-1.023,0-1.414l4.243-4.243
		c0.391-0.391,1.023-0.391,1.414,0s0.391,1.023,0,1.414l-4.243,4.243C20.133,48.781,19.877,48.879,19.621,48.879z"/>
	<path style="fill:#95A5A5;" d="M11.136,57.364c-0.256,0-0.512-0.098-0.707-0.293c-0.391-0.391-0.391-1.023,0-1.414l4.243-4.243
		c0.391-0.391,1.023-0.391,1.414,0s0.391,1.023,0,1.414l-4.243,4.243C11.647,57.266,11.392,57.364,11.136,57.364z"/>
	<path style="fill:#95A5A5;" d="M23.864,57.364c-0.256,0-0.512-0.098-0.707-0.293l-4.243-4.243c-0.391-0.391-0.391-1.023,0-1.414
		s1.023-0.391,1.414,0l4.243,4.243c0.391,0.391,0.391,1.023,0,1.414C24.376,57.266,24.12,57.364,23.864,57.364z"/>
	<path style="fill:#95A5A5;" d="M15.379,48.879c-0.256,0-0.512-0.098-0.707-0.293l-4.243-4.243c-0.391-0.391-0.391-1.023,0-1.414
		s1.023-0.391,1.414,0l4.243,4.243c0.391,0.391,0.391,1.023,0,1.414C15.891,48.781,15.635,48.879,15.379,48.879z"/>
	<path style="fill:#4C8056;" d="M58.026,15H27.5l3-8h24l3.85,7.551C58.424,14.772,58.259,15,58.026,15z"/>
	<g>
		<polygon style="fill:#ECF0F1;" points="41.5,29 33.5,29 33.5,21 36.5,18 38.5,18 41.5,21 		"/>
		<path style="fill:#F0C419;" d="M42.5,30h-10v-9.414L36.086,17h2.828l3.586,3.586V30z M34.5,28h6v-6.586L38.086,19h-1.172
			L34.5,21.414V28z"/>
	</g>
	<g>
		<polygon style="fill:#ECF0F1;" points="53.5,29 45.5,29 45.5,21 48.5,18 50.5,18 53.5,21 		"/>
		<path style="fill:#F0C419;" d="M54.5,30h-10v-9.414L48.086,17h2.828l3.586,3.586V30z M46.5,28h6v-6.586L50.086,19h-1.172
			L46.5,21.414V28z"/>
	</g>
	<path style="fill:#4C8056;" d="M5.5,47H2.402C1.352,47,0.5,46.148,0.5,45.098V40l5-3V47z"/>
	<rect x="9.5" y="26" style="fill:#4C8056;" width="8" height="4"/>
	<polygon style="fill:#14A085;" points="17.5,26 9.5,26 8.5,21 11.547,17 15.497,17 18.5,20.956 	"/>
	<path style="fill:#ECF0F1;" d="M13.5,14c-0.553,0-1-0.448-1-1c0-2.206,1.794-4,4-4c0.553,0,1,0.448,1,1s-0.447,1-1,1
		c-1.103,0-2,0.897-2,2C14.5,13.552,14.053,14,13.5,14z"/>
	<path style="fill:#ECF0F1;" d="M16.5,11c-0.553,0-1-0.448-1-1s0.447-1,1-1c1.103,0,2-0.897,2-2c0-0.552,0.447-1,1-1s1,0.448,1,1
		C20.5,9.206,18.706,11,16.5,11z"/>
	<path style="fill:#ECF0F1;" d="M19.5,8c-0.553,0-1-0.448-1-1c0-2.206,1.794-4,4-4c0.553,0,1,0.448,1,1s-0.447,1-1,1
		c-1.103,0-2,0.897-2,2C20.5,7.552,20.053,8,19.5,8z"/>
	<path style="fill:#ECF0F1;" d="M22.5,5c-0.553,0-1-0.448-1-1s0.447-1,1-1c1.103,0,2-0.897,2-2c0-0.552,0.447-1,1-1s1,0.448,1,1
		C26.5,3.206,24.706,5,22.5,5z"/>
	<rect x="21.5" y="25" style="fill:#4C8056;" width="3" height="5"/>
	<path style="fill:#F0C419;" d="M29.5,44c-0.553,0-1-0.448-1-1V33c0-0.552,0.447-1,1-1s1,0.448,1,1v10
		C30.5,43.552,30.053,44,29.5,44z"/>
	<path style="fill:#F0C419;" d="M26.5,39h-18v-6h18V39z M10.5,37h14v-2h-14V37z"/>
	<path style="fill:#F0C419;" d="M32.5,32v12h22V32H32.5z M41.914,42l-4-4l4-4h3.172l4,4l-4,4H41.914z M34.5,34h4.586l-3.293,3.293
		c-0.391,0.391-0.391,1.023,0,1.414L39.086,42H34.5V34z M52.5,42h-4.586l3.293-3.293c0.391-0.391,0.391-1.023,0-1.414L47.914,34
		H52.5V42z"/>
</g>
<g>
</g>
<g>
</g>
<g>
</g>
<g>
</g>
<g>
</g>
<g>
</g>
<g>
</g>
<g>
</g>
<g>
</g>
<g>
</g>
<g>
</g>
<g>
</g>
<g>
</g>
<g>
</g>
<g>
</g>
</svg>
